Logan's War: Bound by Honor (1998)

IMDB: http://www.imdb.com/title/tt0176943

Logan Fallon was ten years old when his prosecutor father was marked for murder by a gangster he was prosecuting. Logan has this uncanny ability to sense danger before it happens, and he sensed the gangster's hitmen coming and survived their attack but the rest of his family was not so lucky. Logan chose not to tell the investigator who killed his family cause he wants to get them himself. He is taken in by his Uncle Jake who's an ex Army Ranger and a martial arts expert, he teaches Logan martial arts and gets him into the Rangers so that he could prepare himself to go after the people who killed his family.


General
Complete name                    : Logans.War.Bound.By.Honor.1998.iNT.DVDRip.XviD-NDRT.avi
Format                           : AVI
Format/Info                      : Audio Video Interleave
File size                        : 695 MiB
Duration                         : 1h 31mn
Overall bit rate                 : 1 066 Kbps
Writing application              : VirtualDubMod 1.4.13
Writing library                  : VirtualDub build 14328/release

Video
ID                               : 0
Format                           : MPEG-4 Visual
Format profile                   : Advanced Simple@L5
Format settings, BVOP            : No
Format settings, QPel            : No
Format settings, GMC             : No warppoints
Format settings, Matrix          : Default (H.263)
Codec ID                         : XVID
Codec ID/Hint                    : XviD
Duration                         : 1h 31mn
Bit rate                         : 930 Kbps
Width                            : 512 pixels
Height                           : 384 pixels
Display aspect ratio             : 4:3
Frame rate                       : 23.976 fps
Resolution                       : 8 bits
Colorimetry                      : 4:2:0
Scan type                        : Progressive
Bits/(Pixel*Frame)               : 0.197
Stream size                      : 606 MiB (87%)
Writing library                  : XviD 1.0.1 (UTC 2004-06-05)

Audio
ID                               : 1
Format                           : MPEG Audio
Format version                   : Version 1
Format profile                   : Layer 3
Mode                             : Joint stereo
Format_Settings_ModeExtension    : MS Stereo
Codec ID                         : 55
Codec ID/Hint                    : MP3
Duration                         : 1h 31mn
Bit rate mode                    : Variable
Bit rate                         : 123 Kbps
Nominal bit rate                 : 128 Kbps
Channel(s)                       : 2 channels
Sampling rate                    : 48.0 KHz
Stream size                      : 80.4 MiB (12%)
Alignment                        : Aligned on interleaves
Interleave, duration             : 24 ms (0.58 video frame)
Interleave, preload duration     : 494 ms
Writing library                  : LAME3.90.
Encoding settings                : -m j -V 4 -q 2 -lowpass 17.6 --abr 128
